<svg xmlns="http://www.w3.org/2000/svg" viewBox="0 0 100 100">
  <path fill="#599cff" d="M87.137 57.278a37.86 37.86 0 0 0 .709-7.277c0-4.774-.897-9.34-2.517-13.55a2.318 2.318 0 0 0-.137-.347A38.05 38.05 0 0 0 72.59 19.653a2.257 2.257 0 0 0-.358-.255A37.64 37.64 0 0 0 50 12.153a37.633 37.633 0 0 0-22.23 7.245c-.13.074-.25.16-.362.258a38.035 38.035 0 0 0-12.597 16.443 2.245 2.245 0 0 0-.142.36 37.649 37.649 0 0 0-2.514 13.542c0 2.528.254 4.998.729 7.389.003.021.001.041.005.061.009.042.019.083.027.125l.044.2c.053.244.108.489.17.734C17.002 75.292 32.058 87.847 50 87.847c16.399 0 30.391-10.487 35.634-25.105a20.418 20.418 0 0 0 1.503-5.446v-.018zm-70.409-7.277c0-1.153.06-2.293.175-3.417C20.107 53.085 26.3 58.4 33.614 58.4c5.445 0 10.343-2.471 13.718-6.389v5.833c-.812 7.011-6.41 14.174-13.718 14.174-6.319 0-14.3-5.88-16.219-15.383a33.194 33.194 0 0 1-.667-6.634zm35.283-28.026c0-.229-.044-.443-.105-.651v-4.537a33.053 33.053 0 0 1 16.834 5.74c-.563 5.034-4.711 8.923-8.192 8.923-4.308-.001-8.537-4.694-8.537-9.475zm-4.68 2.073c-.655 4.138-3.993 7.4-7.879 7.4-3.48 0-7.629-3.889-8.192-8.923a33.057 33.057 0 0 1 16.072-5.682v7.205zM33.613 76.594c5.681 0 10.456-2.965 13.718-7.179v13.741a33.103 33.103 0 0 1-18.036-7.139c1.391.37 2.833.577 4.318.577zm18.293-7.262c3.538 4.376 8.814 7.262 14.481 7.262 1.45 0 2.898-.204 4.319-.578a33.094 33.094 0 0 1-18.8 7.198V69.332zm14.481 2.687c-7.658 0-14.375-7.015-14.375-15.013 0-.059-.013-.114-.018-.172.009-.24.018-.481.018-.72 0-.228-.044-.444-.105-.652v-4.434c3.538 4.443 8.814 7.372 14.481 7.372 7.314 0 13.507-5.315 16.711-11.817A33.55 33.55 0 0 1 83.274 50c0 3.996-.71 7.831-2.008 11.384-2.863 6.317-9.409 10.635-14.879 10.635zM80.854 37.57c-.251 9.044-8.016 16.257-14.467 16.257-7.523 0-14.375-7.299-14.375-15.312 0-.228-.044-.444-.105-.652v-5.63c2.364 2.313 5.432 3.791 8.643 3.791 4.947 0 10.369-4.18 12.194-10.277a33.39 33.39 0 0 1 8.11 11.823zM27.258 25.747c1.824 6.097 7.246 10.276 12.194 10.276 2.953 0 5.706-1.158 7.879-3.061v8.146c-.87 7.162-6.683 12.719-13.718 12.719-6.451 0-14.215-7.212-14.468-16.256a33.384 33.384 0 0 1 8.113-11.824z"/>
</svg>

